<svg xmlns="http://www.w3.org/2000/svg" xmlns:xlink="http://www.w3.org/1999/xlink" width="138.012" height="148" viewBox="0 0 138.012 148"><defs><filter id="a" x="0" y="102.003" width="138.012" height="45.997" filterUnits="userSpaceOnUse"><feOffset dy="3" input="SourceAlpha"/><feGaussianBlur stdDeviation="3" result="b"/><feFlood flood-opacity="0.502"/><feComposite operator="in" in2="b"/><feComposite in="SourceGraphic"/></filter><filter id="c" x="0.006" y="0" width="138.002" height="54.003" filterUnits="userSpaceOnUse"><feOffset dy="3" input="SourceAlpha"/><feGaussianBlur stdDeviation="3" result="d"/><feFlood flood-opacity="0.502"/><feComposite operator="in" in2="d"/><feComposite in="SourceGraphic"/></filter><filter id="e" x="34.005" y="36.003" width="70.004" height="38.002" filterUnits="userSpaceOnUse"><feOffset dy="3" input="SourceAlpha"/><feGaussianBlur stdDeviation="3" result="f"/><feFlood flood-opacity="0.502"/><feComposite operator="in" in2="f"/><feComposite in="SourceGraphic"/></filter><filter id="g" x="52.006" y="74.006" width="34.001" height="34.001" filterUnits="userSpaceOnUse"><feOffset dy="3" input="SourceAlpha"/><feGaussianBlur stdDeviation="3" result="h"/><feFlood flood-opacity="0.502"/><feComposite operator="in" in2="h"/><feComposite in="SourceGraphic"/></filter><filter id="i" x="42.005" y="64.005" width="54.003" height="54.003" filterUnits="userSpaceOnUse"><feOffset dy="3" input="SourceAlpha"/><feGaussianBlur stdDeviation="3" result="j"/><feFlood flood-opacity="0.502"/><feComposite operator="in" in2="j"/><feComposite in="SourceGraphic"/></filter><filter id="k" x="82.009" y="46.004" width="48.003" height="56.003" filterUnits="userSpaceOnUse"><feOffset dy="3" input="SourceAlpha"/><feGaussianBlur stdDeviation="3" result="l"/><feFlood flood-opacity="0.502"/><feComposite operator="in" in2="l"/><feComposite in="SourceGraphic"/></filter><filter id="m" x="8.002" y="46.004" width="48.003" height="56.003" filterUnits="userSpaceOnUse"><feOffset dy="3" input="SourceAlpha"/><feGaussianBlur stdDeviation="3" result="n"/><feFlood flood-opacity="0.502"/><feComposite operator="in" in2="n"/><feComposite in="SourceGraphic"/></filter></defs><g transform="translate(7.001 8)"><g transform="matrix(1, 0, 0, 1, -7, -8)" filter="url(#a)"><path d="M120.751,56.143l-10-4a1.966,1.966,0,0,0-.96-.12l-18,2A1.978,1.978,0,0,0,90.008,56H42V50a1.968,1.968,0,0,0-1.06-1.76,1.926,1.926,0,0,0-2.04.1l-4.64,3.08-.84-.84A2.066,2.066,0,0,0,32,50H14.042a12.035,12.035,0,0,0-8.5,20.562,11.869,11.869,0,0,0,8.5,3.52h.02L32,74a2.066,2.066,0,0,0,1.42-.58l.84-.84,4.64,3.08A2,2,0,0,0,42,74V68h48a1.978,1.978,0,0,0,1.78,1.98l18,2a.821.821,0,0,0,.22.02,1.874,1.874,0,0,0,.74-.14l10-4a2,2,0,0,0,1.26-1.86V58A2,2,0,0,0,120.751,56.143ZM38,70.264l-2.9-1.92A1.982,1.982,0,0,0,34,68a2.048,2.048,0,0,0-1.42.58L31.163,70l-17.1.08h-.02a8.041,8.041,0,0,1,0-16.081H31.183l1.4,1.42a2,2,0,0,0,2.52.24l2.9-1.92Zm52-6.261H42V60h48Zm28,.64-8.281,3.32L94.009,66.2V57.8l15.721-1.76,8.281,3.32Z" transform="translate(7 60.01)" fill="#fff"/></g><g transform="matrix(1, 0, 0, 1, -7, -8)" filter="url(#c)"><path d="M120.288,26.022l-12.281-1.76V15.741l12.281-1.76a2.02,2.02,0,0,0,1.52-1.1,2.078,2.078,0,0,0-.06-1.88,18.158,18.158,0,0,0-15.741-9A19.927,19.927,0,0,0,88.724,12L35.281,12A19.926,19.926,0,0,0,18,2,18.158,18.158,0,0,0,2.258,11a2.078,2.078,0,0,0-.06,1.88,2.02,2.02,0,0,0,1.52,1.1L16,15.741v8.521L3.718,26.022a2.02,2.02,0,0,0-1.52,1.1A2.078,2.078,0,0,0,2.258,29,18.158,18.158,0,0,0,18,38c7.461,0,14.641-4.22,17.341-10H88.665c2.7,5.78,9.881,10,17.341,10a18.158,18.158,0,0,0,15.741-9,2.078,2.078,0,0,0,.06-1.88A2.02,2.02,0,0,0,120.288,26.022ZM106.007,34c-6.3,0-12.481-3.8-14.1-8.641a2.028,2.028,0,0,0-1.9-1.36H34a2.028,2.028,0,0,0-1.9,1.36C30.48,30.2,24.3,34,18,34A14.171,14.171,0,0,1,7.578,29.5l10.7-1.52A2,2,0,0,0,20,26V14a2,2,0,0,0-1.72-1.98L7.578,10.5A14.171,14.171,0,0,1,18,6a15.663,15.663,0,0,1,14.141,8.761A2.032,2.032,0,0,0,34,16h56a2.032,2.032,0,0,0,1.86-1.24A15.663,15.663,0,0,1,106.007,6a14.171,14.171,0,0,1,10.421,4.5l-10.7,1.52a2,2,0,0,0-1.72,1.98V26a2,2,0,0,0,1.72,1.98l10.7,1.52A14.171,14.171,0,0,1,106.007,34Z" transform="translate(7 4)" fill="#fff"/></g><g transform="matrix(1, 0, 0, 1, -7, -8)" filter="url(#e)"><path d="M71,22V18H59v4h4v4H61a2,2,0,0,0-2,2v2H54.8a10,10,0,0,0-19.6,0H31V28a2,2,0,0,0-2-2H27V22h4V18H19v4h4v4H21a2,2,0,0,0-2,2v8a2,2,0,0,0,2,2h8a2,2,0,0,0,2-2V34h4v2a2,2,0,0,0,2,2H53a2,2,0,0,0,2-2V34h4v2a2,2,0,0,0,2,2h8a2,2,0,0,0,2-2V28a2,2,0,0,0-2-2H67V22ZM27,34H23V30h4Zm24,0H39V32a6,6,0,0,1,12,0Zm16,0H63V30h4Z" transform="translate(24 24)" fill="#fff"/></g><g transform="matrix(1, 0, 0, 1, -7, -8)" filter="url(#g)"><path d="M36,37a8,8,0,1,0,8,8A8,8,0,0,0,36,37Zm0,12a4,4,0,1,1,4-4A4,4,0,0,1,36,49Z" transform="translate(33.01 43.01)" fill="#fff"/></g><g transform="matrix(1, 0, 0, 1, -7, -8)" filter="url(#i)"><path d="M57.483,44.061l-1.34-.34.72-1.18a2,2,0,0,0-.3-2.44L50.9,34.44a2.024,2.024,0,0,0-2.44-.3l-1.18.72-.34-1.34A2,2,0,0,0,45,32H37a2,2,0,0,0-1.94,1.52l-.34,1.34-1.18-.72a2.028,2.028,0,0,0-2.44.3L25.44,40.1a2,2,0,0,0-.3,2.44l.72,1.18-1.34.34A2,2,0,0,0,23,46v8a2,2,0,0,0,1.52,1.94l1.34.34-.72,1.18a2,2,0,0,0,.3,2.44l5.66,5.66a2.028,2.028,0,0,0,2.44.3l1.18-.72.34,1.34A2,2,0,0,0,37,68h8a2,2,0,0,0,1.94-1.52l.34-1.34,1.18.72a2.024,2.024,0,0,0,2.44-.3l5.66-5.66a2,2,0,0,0,.3-2.44l-.72-1.18,1.34-.34A2,2,0,0,0,59,54V46A2,2,0,0,0,57.483,44.061ZM55,52.442l-2.44.6a2.014,2.014,0,0,0-1.36,1.18,2.038,2.038,0,0,0,.12,1.8l1.3,2.16-3.44,3.44-2.16-1.3a2.038,2.038,0,0,0-1.8-.12,2.014,2.014,0,0,0-1.18,1.36l-.6,2.44h-4.88l-.6-2.44a2.014,2.014,0,0,0-1.18-1.36,2.038,2.038,0,0,0-1.8.12l-2.16,1.3-3.44-3.44,1.3-2.16a2.038,2.038,0,0,0,.12-1.8,2.014,2.014,0,0,0-1.36-1.18l-2.44-.6v-4.88l2.44-.6a2.014,2.014,0,0,0,1.36-1.18,2.038,2.038,0,0,0-.12-1.8l-1.3-2.16,3.44-3.44,2.16,1.28a1.978,1.978,0,0,0,1.8.14,2.014,2.014,0,0,0,1.18-1.36l.6-2.44h4.88l.6,2.44a2.014,2.014,0,0,0,1.18,1.36,1.978,1.978,0,0,0,1.8-.14l2.16-1.28,3.44,3.44-1.3,2.16a2.038,2.038,0,0,0-.12,1.8,2.014,2.014,0,0,0,1.36,1.18l2.44.6Z" transform="translate(28.01 38.01)" fill="#fff"/></g><g transform="matrix(1, 0, 0, 1, -7, -8)" filter="url(#k)"><path d="M73,59V25a2,2,0,0,0-2-2H51v4H69V57H43v4H71A2,2,0,0,0,73,59Z" transform="translate(48.01 29)" fill="#fff"/></g><g transform="matrix(1, 0, 0, 1, -7, -8)" filter="url(#m)"><path d="M28,27V23H8a2,2,0,0,0-2,2V59a2,2,0,0,0,2,2H36V57H10V27Z" transform="translate(11 29)" fill="#fff"/></g></g></svg>