<svg xmlns="http://www.w3.org/2000/svg" xmlns:xlink="http://www.w3.org/1999/xlink" width="137.993" height="138" viewBox="0 0 137.993 138"><defs><filter id="a" x="44.997" y="45" width="48" height="48" filterUnits="userSpaceOnUse"><feOffset dy="3" input="SourceAlpha"/><feGaussianBlur stdDeviation="3" result="b"/><feFlood flood-opacity="0.502"/><feComposite operator="in" in2="b"/><feComposite in="SourceGraphic"/></filter><filter id="c" x="80.271" y="78.284" width="57.722" height="40.629" filterUnits="userSpaceOnUse"><feOffset dy="3" input="SourceAlpha"/><feGaussianBlur stdDeviation="3" result="d"/><feFlood flood-opacity="0.502"/><feComposite operator="in" in2="d"/><feComposite in="SourceGraphic"/></filter><filter id="e" x="0" y="0" width="137.993" height="138" filterUnits="userSpaceOnUse"><feOffset dy="3" input="SourceAlpha"/><feGaussianBlur stdDeviation="3" result="f"/><feFlood flood-opacity="0.502"/><feComposite operator="in" in2="f"/><feComposite in="SourceGraphic"/></filter><filter id="g" x="95.151" y="52.069" width="42.842" height="33.937" filterUnits="userSpaceOnUse"><feOffset dy="3" input="SourceAlpha"/><feGaussianBlur stdDeviation="3" result="h"/><feFlood flood-opacity="0.502"/><feComposite operator="in" in2="h"/><feComposite in="SourceGraphic"/></filter></defs><g transform="translate(8.984 6)"><g transform="matrix(1, 0, 0, 1, -8.98, -6)" filter="url(#a)"><path d="M207.9,193.158a1.974,1.974,0,0,0-1.974,1.974,11.053,11.053,0,1,1-11.053-11.053,1.974,1.974,0,1,0,0-3.947,15,15,0,1,0,15,15A1.974,1.974,0,0,0,207.9,193.158Z" transform="translate(-125.88 -129.13)" fill="#fff"/></g><g transform="matrix(1, 0, 0, 1, -8.98, -6)" filter="url(#c)"><path d="M374.259,340.7a7.916,7.916,0,0,0-3.728.929L363.6,334.7a2.344,2.344,0,0,0-1.657-.686H344.848a2.344,2.344,0,1,0,0,4.687h16.118l6.25,6.25a7.967,7.967,0,1,0,7.042-4.244Zm0,11.249a3.281,3.281,0,1,1,3.281-3.281A3.285,3.285,0,0,1,374.259,351.954Z" transform="translate(-253.23 -249.73)" fill="#fff"/></g><g transform="matrix(1, 0, 0, 1, -8.98, -6)" filter="url(#e)"><path d="M112.041,19.094A7.964,7.964,0,0,0,105,30.786l-6.25,6.25H73.1a26.489,26.489,0,0,0-10.753-3.394V29.406H87.065a2.344,2.344,0,0,0,2.052-1.211l7.122-12.907a7.983,7.983,0,1,0-3.627-3.129l-6.931,12.56H62.352V2.353A2.344,2.344,0,0,0,60.009.01H49.5a2.344,2.344,0,0,0-2.344,2.344V9.606a51.493,51.493,0,0,0-13.749,5.7L28.3,10.2a2.343,2.343,0,0,0-3.315,0L10.17,25.02a2.343,2.343,0,0,0,0,3.314l5.1,5.1a51.5,51.5,0,0,0-5.7,13.749H2.36A2.344,2.344,0,0,0,.016,49.529V70.486A2.344,2.344,0,0,0,2.36,72.83H9.576a51.481,51.481,0,0,0,5.7,13.749l-5.1,5.1a2.343,2.343,0,0,0,0,3.314l14.813,14.824a2.345,2.345,0,0,0,1.657.687h0a2.344,2.344,0,0,0,1.657-.686l5.108-5.108a51.512,51.512,0,0,0,13.749,5.7v7.241a2.343,2.343,0,0,0,2.342,2.344h10.51a2.334,2.334,0,0,0,2.344-2.338V95.182H85.677l6.938,12.655a7.964,7.964,0,1,0,3.63-3.128l-7.125-13a2.344,2.344,0,0,0-2.055-1.217H62.352v-6.31a2.344,2.344,0,0,0-2.344-2.344,21.833,21.833,0,0,1-.436-43.662,2.342,2.342,0,0,0,.41.038,21.91,21.91,0,0,1,20.45,14.207,2.343,2.343,0,1,0,4.393-1.634,26.325,26.325,0,0,0-5.708-9.067h20.6a2.344,2.344,0,0,0,1.657-.686l6.936-6.936a7.967,7.967,0,1,0,3.728-15.008ZM99.386,4.687A3.281,3.281,0,1,1,96.1,7.968,3.285,3.285,0,0,1,99.386,4.687Zm0,104.064a3.281,3.281,0,1,1-3.281,3.281A3.285,3.285,0,0,1,99.386,108.751ZM57.665,33.589a26.522,26.522,0,0,0,0,52.837v28.885l-5.822,0v-6.757a2.344,2.344,0,0,0-1.851-2.291,46.892,46.892,0,0,1-15.656-6.488,2.344,2.344,0,0,0-2.929.311l-4.764,4.764L15.142,93.34l4.76-4.76a2.343,2.343,0,0,0,.311-2.929,46.884,46.884,0,0,1-6.487-15.656,2.344,2.344,0,0,0-2.291-1.851H4.7V51.873h6.732a2.344,2.344,0,0,0,2.291-1.851,46.889,46.889,0,0,1,6.487-15.656,2.343,2.343,0,0,0-.311-2.929l-4.76-4.76,11.5-11.509,4.764,4.764a2.344,2.344,0,0,0,2.929.311,46.893,46.893,0,0,1,15.656-6.488,2.344,2.344,0,0,0,1.851-2.291V4.7h5.822V33.589Zm54.376-3.246a3.281,3.281,0,1,1,3.281-3.281A3.285,3.285,0,0,1,112.041,30.343Z" transform="translate(8.98 6)" fill="#fff"/></g><g transform="matrix(1, 0, 0, 1, -8.98, -6)" filter="url(#g)"><path d="M422.865,222.16a7.982,7.982,0,0,0-7.616,5.625h-6.915a2.344,2.344,0,0,0,0,4.687h6.914a7.968,7.968,0,1,0,7.616-10.312Zm0,11.249a3.281,3.281,0,1,1,3.281-3.281A3.285,3.285,0,0,1,422.865,233.409Z" transform="translate(-301.84 -164.09)" fill="#fff"/></g></g></svg>