<svg xmlns="http://www.w3.org/2000/svg" xmlns:xlink="http://www.w3.org/1999/xlink" width="138" height="138" viewBox="0 0 138 138"><defs><filter id="a" x="54.194" y="42.581" width="83.806" height="95.419" filterUnits="userSpaceOnUse"><feOffset dy="3" input="SourceAlpha"/><feGaussianBlur stdDeviation="3" result="b"/><feFlood flood-opacity="0.502"/><feComposite operator="in" in2="b"/><feComposite in="SourceGraphic"/></filter><filter id="c" x="65.806" y="100.645" width="29.613" height="29.613" filterUnits="userSpaceOnUse"><feOffset dy="3" input="SourceAlpha"/><feGaussianBlur stdDeviation="3" result="d"/><feFlood flood-opacity="0.502"/><feComposite operator="in" in2="d"/><feComposite in="SourceGraphic"/></filter><filter id="e" x="69.677" y="0" width="48.968" height="48.968" filterUnits="userSpaceOnUse"><feOffset dy="3" input="SourceAlpha"/><feGaussianBlur stdDeviation="3" result="f"/><feFlood flood-opacity="0.502"/><feComposite operator="in" in2="f"/><feComposite in="SourceGraphic"/></filter><filter id="g" x="85.161" y="7.742" width="25.742" height="25.742" filterUnits="userSpaceOnUse"><feOffset dy="3" input="SourceAlpha"/><feGaussianBlur stdDeviation="3" result="h"/><feFlood flood-opacity="0.502"/><feComposite operator="in" in2="h"/><feComposite in="SourceGraphic"/></filter><filter id="i" x="0" y="58.064" width="72.194" height="79.936" filterUnits="userSpaceOnUse"><feOffset dy="3" input="SourceAlpha"/><feGaussianBlur stdDeviation="3" result="j"/><feFlood flood-opacity="0.502"/><feComposite operator="in" in2="j"/><feComposite in="SourceGraphic"/></filter><filter id="k" x="19.355" y="15.484" width="37.355" height="37.355" filterUnits="userSpaceOnUse"><feOffset dy="3" input="SourceAlpha"/><feGaussianBlur stdDeviation="3" result="l"/><feFlood flood-opacity="0.502"/><feComposite operator="in" in2="l"/><feComposite in="SourceGraphic"/></filter><filter id="m" x="3.871" y="7.742" width="68.323" height="60.58" filterUnits="userSpaceOnUse"><feOffset dy="3" input="SourceAlpha"/><feGaussianBlur stdDeviation="3" result="n"/><feFlood flood-opacity="0.502"/><feComposite operator="in" in2="n"/><feComposite in="SourceGraphic"/></filter></defs><g transform="translate(-686 -208)"><g transform="matrix(1, 0, 0, 1, 686, 208)" filter="url(#a)"><path d="M284.723,216.905l-7.045-3.521V197.162a3.875,3.875,0,0,0,3.871-3.871v-7.742a3.875,3.875,0,0,0-3.871-3.871h-27.1a3.875,3.875,0,0,0-3.871,3.871v7.742a3.875,3.875,0,0,0,3.871,3.871v16.223l-7.045,3.521A22.272,22.272,0,0,0,253.5,259.1h21.263a22.272,22.272,0,0,0,9.962-42.192Zm-34.142-31.357h27.1l0,7.742h-27.1Zm-5.313,34.819,9.184-4.591V197.162h19.355v18.615l9.184,4.591A18.274,18.274,0,0,1,292.509,232H262a9.677,9.677,0,0,0-18.964,0h-7.287A18.282,18.282,0,0,1,245.268,220.368Zm36.281,19.374a3.871,3.871,0,1,1-3.871-3.871A3.875,3.875,0,0,1,281.548,239.742ZM257.967,232h-10.9a5.771,5.771,0,0,1,10.9,0Zm16.794,23.226H253.5a18.422,18.422,0,0,1-18.4-18.4c0-.323.05-.635.066-.954h35.849a7.662,7.662,0,0,0-1.076,3.871,7.742,7.742,0,1,0,15.484,0,7.663,7.663,0,0,0-1.076-3.871H293.1c.015.319.066.631.066.954A18.422,18.422,0,0,1,274.761,255.226Z" transform="translate(-168.03 -133.1)" fill="#fff"/></g><g transform="matrix(1, 0, 0, 1, 686, 208)" filter="url(#c)"><path d="M286.58,429.419a5.806,5.806,0,1,0,5.806,5.806A5.813,5.813,0,0,0,286.58,429.419Zm0,7.742a1.935,1.935,0,1,1,1.935-1.935A1.936,1.936,0,0,1,286.58,437.161Z" transform="translate(-205.97 -322.77)" fill="#fff"/></g><g transform="matrix(1, 0, 0, 1, 686, 208)" filter="url(#e)"><path d="M312.774,30.968A15.484,15.484,0,1,0,297.29,15.484,15.5,15.5,0,0,0,312.774,30.968Zm0-27.1a11.613,11.613,0,1,1-11.613,11.613A11.624,11.624,0,0,1,312.774,3.871Z" transform="translate(-218.61 6)" fill="#fff"/></g><g transform="matrix(1, 0, 0, 1, 686, 208)" filter="url(#g)"><path d="M367.226,40.775H371.1a7.75,7.75,0,0,0-7.742-7.742V36.9A3.875,3.875,0,0,1,367.226,40.775Z" transform="translate(-269.19 -19.29)" fill="#fff"/></g><g transform="matrix(1, 0, 0, 1, 686, 208)" filter="url(#i)"><path d="M50.323,294.193H37.3a15.437,15.437,0,0,0,5.276-11.613V263.225a15.484,15.484,0,0,0-30.968,0V282.58a15.436,15.436,0,0,0,5.276,11.613H3.871A3.875,3.875,0,0,0,0,298.064v7.742a3.875,3.875,0,0,0,3.871,3.871H50.323a3.875,3.875,0,0,0,3.871-3.871v-7.742a3.875,3.875,0,0,0-3.871-3.871ZM27.1,251.612A11.624,11.624,0,0,1,38.71,263.225v7.742H15.484v-7.742A11.625,11.625,0,0,1,27.1,251.612ZM15.484,282.58v-7.742H38.71v7.742a11.613,11.613,0,0,1-23.226,0ZM3.871,305.806v-7.742H50.323l0,7.742Z" transform="translate(9 -183.68)" fill="#fff"/></g><g transform="matrix(1, 0, 0, 1, 686, 208)" filter="url(#k)"><path d="M86.452,81.549a3.875,3.875,0,0,0,3.871,3.871h3.871a3.875,3.875,0,0,0,3.871-3.871,3.875,3.875,0,0,0,3.871-3.871V73.807a3.875,3.875,0,0,0-3.871-3.871,3.875,3.875,0,0,0-3.871-3.871H90.323a3.875,3.875,0,0,0-3.871,3.871,3.875,3.875,0,0,0-3.871,3.871v3.871A3.875,3.875,0,0,0,86.452,81.549Zm0-7.742h3.871V69.936h3.871v3.871h3.871v3.871H94.194v3.871H90.323V77.678H86.452Z" transform="translate(-54.23 -44.58)" fill="#fff"/></g><g transform="matrix(1, 0, 0, 1, 686, 208)" filter="url(#m)"><path d="M24.258,67.871H36.3l1.1,4.4a4.413,4.413,0,0,0,8.563,0l1.1-4.4H59.1a7.75,7.75,0,0,0,7.742-7.742V40.775A7.75,7.75,0,0,0,59.1,33.033H24.258a7.75,7.75,0,0,0-7.742,7.742V60.13A7.75,7.75,0,0,0,24.258,67.871Zm-3.871-27.1A3.875,3.875,0,0,1,24.258,36.9H59.1a3.875,3.875,0,0,1,3.871,3.871V60.13A3.875,3.875,0,0,1,59.1,64H44.038l-1.833,7.33a.564.564,0,0,1-1.055,0L39.316,64H24.258a3.875,3.875,0,0,1-3.871-3.871Z" transform="translate(-3.65 -19.29)" fill="#fff"/></g></g></svg>