<svg xmlns="http://www.w3.org/2000/svg" xmlns:xlink="http://www.w3.org/1999/xlink" width="138.129" height="138" viewBox="0 0 138.129 138"><defs><filter id="a" x="9.672" y="96.722" width="33.476" height="33.476" filterUnits="userSpaceOnUse"><feOffset dy="3" input="SourceAlpha"/><feGaussianBlur stdDeviation="3" result="b"/><feFlood flood-opacity="0.502"/><feComposite operator="in" in2="b"/><feComposite in="SourceGraphic"/></filter><filter id="c" x="30.951" y="100.591" width="29.607" height="29.607" filterUnits="userSpaceOnUse"><feOffset dy="3" input="SourceAlpha"/><feGaussianBlur stdDeviation="3" result="d"/><feFlood flood-opacity="0.502"/><feComposite operator="in" in2="d"/><feComposite in="SourceGraphic"/></filter><filter id="e" x="42.558" y="88.984" width="29.607" height="29.607" filterUnits="userSpaceOnUse"><feOffset dy="3" input="SourceAlpha"/><feGaussianBlur stdDeviation="3" result="f"/><feFlood flood-opacity="0.502"/><feComposite operator="in" in2="f"/><feComposite in="SourceGraphic"/></filter><filter id="g" x="25.344" y="88.984" width="21.869" height="21.869" filterUnits="userSpaceOnUse"><feOffset dy="3" input="SourceAlpha"/><feGaussianBlur stdDeviation="3" result="h"/><feFlood flood-opacity="0.502"/><feComposite operator="in" in2="h"/><feComposite in="SourceGraphic"/></filter><filter id="i" x="51.23" y="108.329" width="21.869" height="21.869" filterUnits="userSpaceOnUse"><feOffset dy="3" input="SourceAlpha"/><feGaussianBlur stdDeviation="3" result="j"/><feFlood flood-opacity="0.502"/><feComposite operator="in" in2="j"/><feComposite in="SourceGraphic"/></filter><filter id="k" x="73.444" y="65.771" width="56.818" height="72.229" filterUnits="userSpaceOnUse"><feOffset dy="3" input="SourceAlpha"/><feGaussianBlur stdDeviation="3" result="l"/><feFlood flood-opacity="0.502"/><feComposite operator="in" in2="l"/><feComposite in="SourceGraphic"/></filter><filter id="m" x="90.788" y="108.329" width="21.869" height="21.869" filterUnits="userSpaceOnUse"><feOffset dy="3" input="SourceAlpha"/><feGaussianBlur stdDeviation="3" result="n"/><feFlood flood-opacity="0.502"/><feComposite operator="in" in2="n"/><feComposite in="SourceGraphic"/></filter><filter id="o" x="0" y="0" width="138.129" height="137.935" filterUnits="userSpaceOnUse"><feOffset dy="3" input="SourceAlpha"/><feGaussianBlur stdDeviation="3" result="p"/><feFlood flood-opacity="0.502"/><feComposite operator="in" in2="p"/><feComposite in="SourceGraphic"/></filter><filter id="q" x="30.951" y="0" width="33.476" height="33.476" filterUnits="userSpaceOnUse"><feOffset dy="3" input="SourceAlpha"/><feGaussianBlur stdDeviation="3" result="r"/><feFlood flood-opacity="0.502"/><feComposite operator="in" in2="r"/><feComposite in="SourceGraphic"/></filter><filter id="s" x="0" y="0" width="37.344" height="37.344" filterUnits="userSpaceOnUse"><feOffset dy="3" input="SourceAlpha"/><feGaussianBlur stdDeviation="3" result="t"/><feFlood flood-opacity="0.502"/><feComposite operator="in" in2="t"/><feComposite in="SourceGraphic"/></filter></defs><g transform="translate(-425 -512)"><g transform="matrix(1, 0, 0, 1, 425, 512)" filter="url(#a)"><path d="M47.738,400.266A7.738,7.738,0,1,0,55.476,408,7.761,7.761,0,0,0,47.738,400.266Zm0,11.607A3.869,3.869,0,1,1,51.607,408,3.88,3.88,0,0,1,47.738,411.873Z" transform="translate(-21.33 -297.54)" fill="#fff"/></g><g transform="matrix(1, 0, 0, 1, 425, 512)" filter="url(#c)"><path d="M133.8,416.266a5.8,5.8,0,1,0,5.8,5.8A5.7,5.7,0,0,0,133.8,416.266Zm0,7.738a1.934,1.934,0,1,1,1.934-1.934A1.828,1.828,0,0,1,133.8,424Z" transform="translate(-88.05 -309.67)" fill="#fff"/></g><g transform="matrix(1, 0, 0, 1, 425, 512)" filter="url(#e)"><path d="M181.8,368.266a5.8,5.8,0,1,0,5.8,5.8A5.7,5.7,0,0,0,181.8,368.266Zm0,7.738a1.934,1.934,0,1,1,1.934-1.934A1.828,1.828,0,0,1,181.8,376Z" transform="translate(-124.44 -273.28)" fill="#fff"/></g><g transform="matrix(1, 0, 0, 1, 425, 512)" filter="url(#g)"><rect width="3.869" height="3.869" transform="translate(34.34 94.98)" fill="#fff"/></g><g transform="matrix(1, 0, 0, 1, 425, 512)" filter="url(#i)"><rect width="3.869" height="3.869" transform="translate(60.23 114.33)" fill="#fff"/></g><g transform="matrix(1, 0, 0, 1, 425, 512)" filter="url(#k)"><path d="M340.939,299.348a20.367,20.367,0,0,0-10.059-10.059V276.135h3.869v-3.869H311.535v3.869H315.4v13.154a19.406,19.406,0,1,0,25.535,10.059Zm-21.666-23.213h7.738V280h-7.738Zm-1.354,16.443a1.858,1.858,0,0,0,1.354-1.741v-6.964h7.738v6.771a1.858,1.858,0,0,0,1.354,1.741,15.94,15.94,0,0,1,9.866,10.639,4.87,4.87,0,0,0-3.869,1.741l-1.548,1.548a1.756,1.756,0,0,1-1.354.58h-.58a1.756,1.756,0,0,1-1.354-.58l-1.548-1.548a8.248,8.248,0,0,0-4.449-1.548h-.58a5.268,5.268,0,0,0-4.062,1.741l-1.548,1.548a1.756,1.756,0,0,1-1.354.58h-.58a1.756,1.756,0,0,1-1.354-.58l-1.548-1.548a7.1,7.1,0,0,0-3.869-1.741A13.7,13.7,0,0,1,317.919,292.578Zm5.223,29.984a15.521,15.521,0,0,1-15.476-15.476h.387a1.756,1.756,0,0,1,1.354.58l1.548,1.548a5.568,5.568,0,0,0,4.062,1.741h.58a5.268,5.268,0,0,0,4.062-1.741l1.548-1.548a1.756,1.756,0,0,1,1.354-.58h.58a1.756,1.756,0,0,1,1.354.58l1.548,1.548a5.568,5.568,0,0,0,4.062,1.741h.58a5.268,5.268,0,0,0,4.062-1.741l1.548-1.548a1.756,1.756,0,0,1,1.354-.58h.967A15.521,15.521,0,0,1,323.142,322.561Z" transform="translate(-221.29 -200.49)" fill="#fff"/></g><g transform="matrix(1, 0, 0, 1, 425, 512)" filter="url(#m)"><rect width="3.869" height="3.869" transform="translate(99.79 114.33)" fill="#fff"/></g><g transform="matrix(1, 0, 0, 1, 425, 512)" filter="url(#o)"><path d="M92.079,13.807h9.479l5.223,8.7a2.032,2.032,0,0,0,1.741.967h11.607V19.61H109.683l-4.643-7.738,5.223-8.7-3.289-1.934-5.61,8.7H91.886l-5.223-8.7A1.532,1.532,0,0,0,85.115.266H73.509V4.135H83.955L88.6,11.873l-2.321,3.869L83.955,19.61H74.476l-5.223-8.7a1.532,1.532,0,0,0-1.548-.967H56.1a2.032,2.032,0,0,0-1.741.967l-5.223,8.7H38.689a2.032,2.032,0,0,0-1.741.967l-5.8,9.672a1.45,1.45,0,0,0-.193.967h-5.8a5.7,5.7,0,0,0-5.8,5.8,5.635,5.635,0,0,0,3.869,5.416V63.522L1.161,103.952A10.3,10.3,0,0,0,0,108.595v1.934A9.578,9.578,0,0,0,9.672,120.2h50.3a9.578,9.578,0,0,0,9.672-9.672v-1.934a9.721,9.721,0,0,0-1.161-4.643L46.427,63.522V42.437a5.662,5.662,0,0,0,3.482-7.351,5.819,5.819,0,0,0-5.416-3.869H35.207l4.643-7.738h9.479l5.223,8.7L57.84,30.25l-5.223-8.7,4.643-7.738h9.479l2.321,3.869,2.321,3.869-5.223,8.7a1.757,1.757,0,0,0,0,1.934l5.223,8.7-5.223,8.7,3.289,1.934,5.223-8.7h9.479l2.321,3.869,2.321,3.869L84.148,58.3H73.509v3.869H85.115a2.032,2.032,0,0,0,1.741-.967l5.223-8.7h9.479l5.03,8.318v1.354h3.869V60.234a1.45,1.45,0,0,0-.193-.967l-5.416-8.7,4.643-7.738h10.446V38.955H109.489l-5.223-8.7a2.032,2.032,0,0,0-1.741-.967H92.079l-2.321-3.869-2.321-3.869,2.321-3.869ZM64.223,105.887a2.758,2.758,0,0,1,1.548,2.708v1.934a5.7,5.7,0,0,1-5.8,5.8H9.672a5.7,5.7,0,0,1-5.8-5.8v-1.934a4.441,4.441,0,0,1,.774-2.708L17.8,81.513h1.741a1.756,1.756,0,0,1,1.354.58L22.44,83.64A5.568,5.568,0,0,0,26.5,85.381h.58a5.268,5.268,0,0,0,4.062-1.741l1.548-1.548a1.756,1.756,0,0,1,1.354-.58h.58a1.756,1.756,0,0,1,1.354.58l1.548,1.548a5.568,5.568,0,0,0,4.062,1.741h.58a5.268,5.268,0,0,0,4.062-1.741l1.548-1.548a1.756,1.756,0,0,1,1.354-.58h1.741ZM49.715,77.644a5.155,5.155,0,0,0-3.869,1.741L44.3,80.932a1.756,1.756,0,0,1-1.354.58h-.58a1.756,1.756,0,0,1-1.354-.58l-1.548-1.548a6.347,6.347,0,0,0-4.256-1.741h-.58a5.268,5.268,0,0,0-4.062,1.741l-1.548,1.548a1.756,1.756,0,0,1-1.354.58h-.58a1.756,1.756,0,0,1-1.354-.58l-1.548-1.548a6.526,6.526,0,0,0-3.869-1.741L27.276,65.07a1.744,1.744,0,0,1-.193-.967V46.693H42.558V64.1a1.744,1.744,0,0,0,.193.967ZM44.492,35.086a1.934,1.934,0,0,1,0,3.869,1.828,1.828,0,0,0-1.934,1.934v1.934H27.082V40.889a1.828,1.828,0,0,0-1.934-1.934,1.934,1.934,0,1,1,0-3.869Zm47.394-1.934h9.479l4.643,7.738-4.643,7.738H91.886l-2.321-3.869-2.321-3.869,2.321-3.869Zm-3.1-1.934L86.47,35.086l-2.321,3.869H74.669l-4.643-7.738,2.321-3.869,2.321-3.869h9.479l2.321,3.869Z" transform="translate(9 5.73)" fill="#fff"/></g><g transform="matrix(1, 0, 0, 1, 425, 512)" filter="url(#q)"><path d="M135.738.266A7.738,7.738,0,1,0,143.476,8,7.761,7.761,0,0,0,135.738.266Zm0,11.607A3.869,3.869,0,1,1,139.607,8,3.88,3.88,0,0,1,135.738,11.873Z" transform="translate(-88.05 5.73)" fill="#fff"/></g><g transform="matrix(1, 0, 0, 1, 425, 512)" filter="url(#s)"><path d="M9.672.266A9.578,9.578,0,0,0,0,9.938,9.578,9.578,0,0,0,9.672,19.61a9.578,9.578,0,0,0,9.672-9.672A9.578,9.578,0,0,0,9.672.266Zm0,15.476a5.7,5.7,0,0,1-5.8-5.8,5.7,5.7,0,0,1,5.8-5.8,5.7,5.7,0,0,1,5.8,5.8A5.7,5.7,0,0,1,9.672,15.742Z" transform="translate(9 5.73)" fill="#fff"/></g></g></svg>