<svg xmlns="http://www.w3.org/2000/svg" xmlns:xlink="http://www.w3.org/1999/xlink" width="139" height="139" viewBox="0 0 139 139"><defs><filter id="a" x="11.25" y="85.313" width="42.438" height="42.438" filterUnits="userSpaceOnUse"><feOffset dy="3" input="SourceAlpha"/><feGaussianBlur stdDeviation="3" result="b"/><feFlood flood-opacity="0.502"/><feComposite operator="in" in2="b"/><feComposite in="SourceGraphic"/></filter><filter id="c" x="20.625" y="94.688" width="23.688" height="23.688" filterUnits="userSpaceOnUse"><feOffset dy="3" input="SourceAlpha"/><feGaussianBlur stdDeviation="3" result="d"/><feFlood flood-opacity="0.502"/><feComposite operator="in" in2="d"/><feComposite in="SourceGraphic"/></filter><filter id="e" x="0" y="0" width="139" height="139" filterUnits="userSpaceOnUse"><feOffset dy="3" input="SourceAlpha"/><feGaussianBlur stdDeviation="3" result="f"/><feFlood flood-opacity="0.502"/><feComposite operator="in" in2="f"/><feComposite in="SourceGraphic"/></filter><filter id="g" x="65.848" y="33.669" width="37.773" height="37.69" filterUnits="userSpaceOnUse"><feOffset dy="3" input="SourceAlpha"/><feGaussianBlur stdDeviation="3" result="h"/><feFlood flood-opacity="0.502"/><feComposite operator="in" in2="h"/><feComposite in="SourceGraphic"/></filter><filter id="i" x="90.527" y="33.669" width="37.773" height="37.689" filterUnits="userSpaceOnUse"><feOffset dy="3" input="SourceAlpha"/><feGaussianBlur stdDeviation="3" result="j"/><feFlood flood-opacity="0.502"/><feComposite operator="in" in2="j"/><feComposite in="SourceGraphic"/></filter><filter id="k" x="90.526" y="60.926" width="37.773" height="37.689" filterUnits="userSpaceOnUse"><feOffset dy="3" input="SourceAlpha"/><feGaussianBlur stdDeviation="3" result="l"/><feFlood flood-opacity="0.502"/><feComposite operator="in" in2="l"/><feComposite in="SourceGraphic"/></filter><filter id="m" x="65.848" y="60.927" width="37.773" height="37.689" filterUnits="userSpaceOnUse"><feOffset dy="3" input="SourceAlpha"/><feGaussianBlur stdDeviation="3" result="n"/><feFlood flood-opacity="0.502"/><feComposite operator="in" in2="n"/><feComposite in="SourceGraphic"/></filter><filter id="o" x="90.526" y="88.182" width="37.773" height="37.69" filterUnits="userSpaceOnUse"><feOffset dy="3" input="SourceAlpha"/><feGaussianBlur stdDeviation="3" result="p"/><feFlood flood-opacity="0.502"/><feComposite operator="in" in2="p"/><feComposite in="SourceGraphic"/></filter><filter id="q" x="65.848" y="88.182" width="37.773" height="37.69" filterUnits="userSpaceOnUse"><feOffset dy="3" input="SourceAlpha"/><feGaussianBlur stdDeviation="3" result="r"/><feFlood flood-opacity="0.502"/><feComposite operator="in" in2="r"/><feComposite in="SourceGraphic"/></filter><filter id="s" x="13.582" y="16.36" width="37.773" height="37.689" filterUnits="userSpaceOnUse"><feOffset dy="3" input="SourceAlpha"/><feGaussianBlur stdDeviation="3" result="t"/><feFlood flood-opacity="0.502"/><feComposite operator="in" in2="t"/><feComposite in="SourceGraphic"/></filter><filter id="u" x="13.582" y="43.617" width="37.773" height="37.689" filterUnits="userSpaceOnUse"><feOffset dy="3" input="SourceAlpha"/><feGaussianBlur stdDeviation="3" result="v"/><feFlood flood-opacity="0.502"/><feComposite operator="in" in2="v"/><feComposite in="SourceGraphic"/></filter><filter id="w" x="115.313" y="67.969" width="23.688" height="23.688" filterUnits="userSpaceOnUse"><feOffset dy="3" input="SourceAlpha"/><feGaussianBlur stdDeviation="3" result="x"/><feFlood flood-opacity="0.502"/><feComposite operator="in" in2="x"/><feComposite in="SourceGraphic"/></filter></defs><g transform="translate(9.5 6.5)"><g transform="translate(0)"><g transform="matrix(1, 0, 0, 1, -9.5, -6.5)" filter="url(#a)"><path d="M59.719,364a11.719,11.719,0,1,0,11.719,11.719A11.732,11.732,0,0,0,59.719,364Zm0,18.75a7.031,7.031,0,1,1,7.031-7.031A7.039,7.039,0,0,1,59.719,382.75Z" transform="translate(-27.25 -272.19)" fill="#fff" stroke="#094cb2" stroke-width="1"/></g><g transform="matrix(1, 0, 0, 1, -9.5, -6.5)" filter="url(#c)"><path d="M90.344,404a2.345,2.345,0,1,0,1.657.687A2.361,2.361,0,0,0,90.344,404Z" transform="translate(-57.88 -302.81)" fill="#fff" stroke="#094cb2" stroke-width="1"/></g><g transform="matrix(1, 0, 0, 1, -9.5, -6.5)" filter="url(#e)"><path d="M117.656,20.625H45.819A22.969,22.969,0,0,0,0,22.969V97.031A23,23,0,0,0,22.969,120h94.687A2.344,2.344,0,0,0,120,117.656v-36.8a2.344,2.344,0,0,0-4.687,0v34.453H36.857a23.11,23.11,0,0,0,7.011-8.758A13.113,13.113,0,0,0,59.417,90.368a2.344,2.344,0,0,0-1.66-1.66,13.172,13.172,0,0,0-11.819,2.621V76.551a13.152,13.152,0,0,0,11.819,2.623,2.344,2.344,0,0,0,1.66-1.66,13.165,13.165,0,0,0-3.394-12.667h0a13.165,13.165,0,0,0-10.085-3.812v-8.7c.264.016.527.025.791.025a13.108,13.108,0,0,0,12.689-16.5,2.344,2.344,0,0,0-1.66-1.66,13.172,13.172,0,0,0-11.819,2.621v-11.5h69.375V59.766a2.344,2.344,0,0,0,4.688,0v-36.8A2.344,2.344,0,0,0,117.656,20.625ZM45.974,65.73a8.421,8.421,0,0,1,9.164,9.164,8.421,8.421,0,0,1-9.164-9.164ZM48.4,40.9a8.455,8.455,0,0,1,6.734-2.43,8.421,8.421,0,0,1-9.164,9.164A8.463,8.463,0,0,1,48.4,40.9ZM4.687,22.969a18.281,18.281,0,0,1,36.563,0V83.143a22.942,22.942,0,0,0-36.562,0Zm18.281,92.344A18.281,18.281,0,1,1,41.25,97.031,18.3,18.3,0,0,1,22.969,115.313ZM48.4,95.417a8.464,8.464,0,0,1,6.734-2.43,8.421,8.421,0,0,1-9.164,9.164A8.464,8.464,0,0,1,48.4,95.417Z" transform="translate(9.5 6.5)" fill="#fff" stroke="#094cb2" stroke-width="1"/></g><g transform="matrix(1, 0, 0, 1, -9.5, -6.5)" filter="url(#g)"><path d="M299.472,146.114a2.344,2.344,0,0,0-1.66-1.66,13.115,13.115,0,0,0-16.062,16.062,2.344,2.344,0,0,0,1.66,1.66,13.115,13.115,0,0,0,16.062-16.062Zm-6.709,9.353a8.464,8.464,0,0,1-6.734,2.43,8.421,8.421,0,0,1,9.164-9.164A8.464,8.464,0,0,1,292.763,155.467Z" transform="translate(-205.88 -103.76)" fill="#fff" stroke="#094cb2" stroke-width="1"/></g><g transform="matrix(1, 0, 0, 1, -9.5, -6.5)" filter="url(#i)"><path d="M404.767,146.114a2.344,2.344,0,0,0-1.66-1.66,13.115,13.115,0,0,0-16.062,16.062,2.344,2.344,0,0,0,1.66,1.66,13.157,13.157,0,0,0,12.667-3.394h0A13.166,13.166,0,0,0,404.767,146.114Zm-6.709,9.353a8.464,8.464,0,0,1-6.734,2.43,8.421,8.421,0,0,1,9.164-9.164A8.464,8.464,0,0,1,398.058,155.467Z" transform="translate(-286.49 -103.76)" fill="#fff" stroke="#094cb2" stroke-width="1"/></g><g transform="matrix(1, 0, 0, 1, -9.5, -6.5)" filter="url(#k)"><path d="M401.371,264.145a13.166,13.166,0,0,0-12.667-3.395,2.344,2.344,0,0,0-1.66,1.66,13.127,13.127,0,0,0,16.062,16.062,2.344,2.344,0,0,0,1.66-1.66A13.165,13.165,0,0,0,401.371,264.145Zm-.884,10.049a8.421,8.421,0,0,1-9.164-9.164,8.421,8.421,0,0,1,9.164,9.164Z" transform="translate(-286.49 -192.8)" fill="#fff" stroke="#094cb2" stroke-width="1"/></g><g transform="matrix(1, 0, 0, 1, -9.5, -6.5)" filter="url(#m)"><path d="M296.076,264.145a13.166,13.166,0,0,0-12.667-3.395,2.344,2.344,0,0,0-1.66,1.66,13.127,13.127,0,0,0,16.062,16.062,2.344,2.344,0,0,0,1.66-1.66A13.165,13.165,0,0,0,296.076,264.145Zm-.884,10.049a8.421,8.421,0,0,1-9.164-9.164,8.421,8.421,0,0,1,9.164,9.164Z" transform="translate(-205.88 -192.8)" fill="#fff" stroke="#094cb2" stroke-width="1"/></g><g transform="matrix(1, 0, 0, 1, -9.5, -6.5)" filter="url(#o)"><path d="M403.107,377.044a13.115,13.115,0,0,0-16.062,16.062,2.344,2.344,0,0,0,1.66,1.66A13.115,13.115,0,0,0,404.767,378.7,2.344,2.344,0,0,0,403.107,377.044Zm-5.049,11.013a8.456,8.456,0,0,1-6.734,2.43,8.42,8.42,0,0,1,9.164-9.164A8.462,8.462,0,0,1,398.058,388.057Z" transform="translate(-286.49 -281.84)" fill="#fff" stroke="#094cb2" stroke-width="1"/></g><g transform="matrix(1, 0, 0, 1, -9.5, -6.5)" filter="url(#q)"><path d="M297.812,377.044a13.115,13.115,0,0,0-16.062,16.062,2.344,2.344,0,0,0,1.66,1.66A13.115,13.115,0,0,0,299.472,378.7a2.344,2.344,0,0,0-1.66-1.66Zm-5.049,11.013a8.456,8.456,0,0,1-6.734,2.43,8.421,8.421,0,0,1,9.164-9.164A8.463,8.463,0,0,1,292.763,388.057Z" transform="translate(-205.88 -281.84)" fill="#fff" stroke="#094cb2" stroke-width="1"/></g><g transform="matrix(1, 0, 0, 1, -9.5, -6.5)" filter="url(#s)"><path d="M60.409,88.324A13.157,13.157,0,0,0,73.077,84.93h0a13.163,13.163,0,0,0,3.395-12.667,2.344,2.344,0,0,0-1.66-1.66A13.115,13.115,0,0,0,58.749,86.664a2.344,2.344,0,0,0,1.66,1.66Zm5.049-11.013a8.463,8.463,0,0,1,6.734-2.43,8.462,8.462,0,0,1-2.43,6.734h0a8.462,8.462,0,0,1-6.734,2.43,8.462,8.462,0,0,1,2.43-6.734Z" transform="translate(-35.14 -47.22)" fill="#fff" stroke="#094cb2" stroke-width="1"/></g><g transform="matrix(1, 0, 0, 1, -9.5, -6.5)" filter="url(#u)"><path d="M71.439,205.062a13.083,13.083,0,0,0,3.373-.442,2.344,2.344,0,0,0,1.66-1.66A13.115,13.115,0,0,0,60.41,186.9a2.344,2.344,0,0,0-1.66,1.66,13.108,13.108,0,0,0,12.689,16.5Zm-8.41-13.885a8.421,8.421,0,0,1,9.164,9.164,8.421,8.421,0,0,1-9.164-9.164Z" transform="translate(-35.14 -136.26)" fill="#fff" stroke="#094cb2" stroke-width="1"/></g><g transform="matrix(1, 0, 0, 1, -9.5, -6.5)" filter="url(#w)"><path d="M494.344,290a2.345,2.345,0,1,0,1.657.687A2.361,2.361,0,0,0,494.344,290Z" transform="translate(-367.19 -215.53)" fill="#fff" stroke="#094cb2" stroke-width="1"/></g></g></g></svg>