<svg xmlns="http://www.w3.org/2000/svg" width="72.493" height="80.886" viewBox="0 0 72.493 80.886"><path d="M336.7-506.785l-2.525-3.719a1.3,1.3,0,0,0-1.11-.569l-4.894.128a1.3,1.3,0,0,0-1.047.578l-.5.747-5.078,3.25a1.3,1.3,0,0,0-.594.973l-.11,1.181h-1.97L315-507.373a1.3,1.3,0,0,0-1.114-.259,1.3,1.3,0,0,0-.887.722l-1.613,3.5-15.439-6.591.886-3.377a1.3,1.3,0,0,0-.836-1.559l-1.282-.439-2.11-3.226.3-.075a1.3,1.3,0,0,0,.885-.748,1.3,1.3,0,0,0-.064-1.157L293-521.866l2.788-5.723a1.3,1.3,0,0,0-.5-1.683l-2.506-1.509a1.291,1.291,0,0,0-.739-.184l-5.349.283-6.667-2.924a1.3,1.3,0,0,0-1.19.076l-3.594,2.151a1.3,1.3,0,0,0-.627,1,1.3,1.3,0,0,0,.438,1.095l2,1.756.111,4.452a1.3,1.3,0,0,0,.342.847l3.293,3.586-2.731,4.922a1.3,1.3,0,0,0-.162.607l-.01.54-4.8,5.276-2.435-.78a1.3,1.3,0,0,0-1.626.818l-1.34,3.93a1.3,1.3,0,0,0,.44,1.452l.691.528,1.757,3.6.013.783-5.3,1.9a1.3,1.3,0,0,0-.858,1.151,1.3,1.3,0,0,0,.725,1.24l1.623.8a1.3,1.3,0,0,0-.491.683,1.3,1.3,0,0,0,.165,1.1l1.982,2.952a1.284,1.284,0,0,0,.5.44l3.215,1.586a1.3,1.3,0,0,0,1.609-.377l1.417-1.857.762,1.808-.457,2.407a1.3,1.3,0,0,0,.058.694l10.644,28.768a1.314,1.314,0,0,0,1.22.849,1.308,1.308,0,0,0,.464-.086l2.605-1a1.3,1.3,0,0,0,.694-.624l.572-1.122.889-1.085,2.232-2.678a1.309,1.309,0,0,0,.282-.6l1.178-6.624a1.292,1.292,0,0,0-.046-.636l-.622-1.877,1.186-3.584.991-.61,1.239-.147a1.3,1.3,0,0,0,.895-.523l1.537-2.094a5.046,5.046,0,0,0,1.546-.771c.493-.459.956-.956,1.431-1.432a3.882,3.882,0,0,0,.963-1.2c.241-.565.471-1.134.706-1.7l4.622-2.54a1.3,1.3,0,0,0,.664-.98l.226-1.827,1.728-1.322,2.32.462a1.3,1.3,0,0,0,1.2-.388,1.3,1.3,0,0,0,.3-1.228l-2.209-8.117,2.712-1.124,1.863,1.217a1.305,1.305,0,0,0,.569.2l1.376.151-1.542,2.281a1.3,1.3,0,0,0-.057,1.365,1.3,1.3,0,0,0,1.2.661l1.017-.049,2.35,3.21a1.3,1.3,0,0,0,1.354.5,1.3,1.3,0,0,0,.979-1.06l.64-4.031,1.091.21a1.305,1.305,0,0,0,.991-.213,1.3,1.3,0,0,0,.537-.86l.706-4.433.628-.829a1.3,1.3,0,0,0,.252-.613l.106-.8,3.823-1.329a1.3,1.3,0,0,0,.845-.958l.449-2.116A1.3,1.3,0,0,0,336.7-506.785Z" transform="translate(-264.434 533.715)" fill="#064cb2"/></svg>