<svg xmlns="http://www.w3.org/2000/svg" width="80.887" height="80.886" viewBox="0 0 80.887 80.886"><path d="M512.519-249.684a6.65,6.65,0,0,0-6.483,5.129,27.438,27.438,0,0,1-27.876,21.121A27.653,27.653,0,0,1,451.692-249.9a27.637,27.637,0,0,1,21.122-27.877,6.649,6.649,0,0,0,5.129-6.483c0-4.014-2.539-6.712-6.319-6.712a8.482,8.482,0,0,0-1.969.241,41.1,41.1,0,0,0-31.3,40.745,40.657,40.657,0,0,0,12,27.886,40.655,40.655,0,0,0,27.887,12q.493.011.983.011h0A40.743,40.743,0,0,0,518.99-241.4a6.79,6.79,0,0,0-1.056-5.912A6.682,6.682,0,0,0,512.519-249.684Z" transform="translate(-438.345 290.972)" fill="#fff"/><path d="M577.672-290.972H552.431a6.1,6.1,0,0,0-6.093,6.093,6.1,6.1,0,0,0,6.093,6.093h9.059L547.963-265.26a5.8,5.8,0,0,0-.739.9,5.747,5.747,0,0,0-.948,3.175q0,.277.026.553a5.733,5.733,0,0,0,1.262,3.085,5.756,5.756,0,0,0,.4.439,5.693,5.693,0,0,0,3.575,1.661q.251.021.5.021a5.721,5.721,0,0,0,4.075-1.683l13.528-13.527v9.06a6.1,6.1,0,0,0,6.095,6.093,6.1,6.1,0,0,0,6.092-6.093v-25.241A4.164,4.164,0,0,0,577.672-290.972Z" transform="translate(-500.946 290.972)" fill="#fff"/></svg>