<svg xmlns="http://www.w3.org/2000/svg" width="71.091" height="80.886" viewBox="0 0 71.091 80.886"><g transform="translate(-650.699 533.715)"><path d="M650.7-474.315a7.118,7.118,0,0,0,7.109,7.11,7.085,7.085,0,0,0,4.931-2l16.453,8.227a7.162,7.162,0,0,0-.056.877,7.255,7.255,0,0,0,7.11,7.267,7.254,7.254,0,0,0,7.109-7.267,7.187,7.187,0,0,0-.056-.877l16.453-8.227a7.083,7.083,0,0,0,4.93,2,7.117,7.117,0,0,0,7.109-7.11,7.119,7.119,0,0,0-4.74-6.7v-24.512a7.12,7.12,0,0,0,4.74-6.7,7.117,7.117,0,0,0-7.109-7.109,7.082,7.082,0,0,0-4.93,1.994L693.3-525.571a7.16,7.16,0,0,0,.056-.876,7.254,7.254,0,0,0-7.109-7.267,7.255,7.255,0,0,0-7.11,7.267,7.136,7.136,0,0,0,.056.876l-16.453,8.227a7.084,7.084,0,0,0-4.931-1.994,7.118,7.118,0,0,0-7.109,7.109,7.12,7.12,0,0,0,4.74,6.7v24.512a7.119,7.119,0,0,0-4.74,6.7Zm31.286-13.27a7.089,7.089,0,0,0,1.89,1.013v9.887h-18.24Zm6.629,1.013a7.1,7.1,0,0,0,1.891-1.013l16.35,10.9h-18.24Zm4.521-4.955a7.045,7.045,0,0,0,.218-1.746,7.034,7.034,0,0,0-.218-1.746l5.539-3.693L708-481.619Zm-2.63-7.434a7.122,7.122,0,0,0-1.891-1.013v-17.184l7.783,14.27Zm-6.63-1.013a7.115,7.115,0,0,0-1.89,1.013l-5.892-3.928,7.782-14.27Zm-4.521,4.956a7.034,7.034,0,0,0-.218,1.746,7.045,7.045,0,0,0,.218,1.746l-14.861,9.907,9.321-17.093Zm4.521,23.073v5.146a7.136,7.136,0,0,0-2.561,1.587l-13.466-6.734Zm4.74,5.146v-5.146h16.028l-13.467,6.734a7.136,7.136,0,0,0-2.561-1.587Zm14.019-34.552,7.788-5.191a7.106,7.106,0,0,0,1.891,1.013V-483.6Zm5.157-9.134-7.435,4.957-8.411-15.421,15.684,7.841a7.188,7.188,0,0,0-.056.877,7.08,7.08,0,0,0,.218,1.746Zm-35.655,4.957-7.435-4.957a7.04,7.04,0,0,0,.218-1.746,7.188,7.188,0,0,0-.056-.877l15.684-7.841Zm-10.067-1.014,7.788,5.191L660.178-483.6v-21.924a7.1,7.1,0,0,0,1.89-1.013Zm0,0" fill="#064cb2"/></g></svg>