<svg xmlns="http://www.w3.org/2000/svg" width="80.729" height="80.886" viewBox="0 0 80.729 80.886"><g transform="translate(-7863.093 -1824.005)"><path d="M7958.822,2052.874a2.37,2.37,0,1,1-4.739,0v-2.37h-4.74v14.218h14.219V2050.5h-4.739Z" transform="translate(-68.082 -178.789)" fill="#064cb2"/><path d="M8101.322,2142.874a2.37,2.37,0,1,1-4.739,0v-2.37h-4.739v14.218h14.218V2140.5h-4.739Z" transform="translate(-180.566 -249.832)" fill="#064cb2"/><path d="M8030.448,2142.874a2.37,2.37,0,0,1-4.74,0v-2.37h-4.739v14.218h14.219V2140.5h-4.739Z" transform="translate(-124.62 -249.832)" fill="#064cb2"/><path d="M8030.448,2052.874a2.37,2.37,0,0,1-4.74,0v-2.37h-4.739v14.218h14.219V2050.5h-4.739Z" transform="translate(-124.62 -178.789)" fill="#064cb2"/><path d="M7958.822,2142.874a2.37,2.37,0,1,1-4.739,0v-2.37h-4.74v14.218h14.219V2140.5h-4.739Z" transform="translate(-68.082 -249.832)" fill="#064cb2"/><path d="M7942.43,1841.446l-38.074-17.231a2.37,2.37,0,0,0-1.957,0l-37.916,17.231a2.368,2.368,0,0,0-1.39,2.157v58.917a2.37,2.37,0,0,0,2.369,2.37h11.059v-49.764a2.371,2.371,0,0,1,2.37-2.37h48.975a2.369,2.369,0,0,1,2.369,2.37v49.764h11.217a2.369,2.369,0,0,0,2.37-2.37V1843.6A2.37,2.37,0,0,0,7942.43,1841.446Zm-31.942,3.412h-14.219a2.37,2.37,0,1,1,0-4.74h14.219a2.37,2.37,0,0,1,0,4.74Z" transform="translate(0 0)" fill="#064cb2"/></g></svg>