<svg xmlns="http://www.w3.org/2000/svg" width="80.886" height="80.886" viewBox="0 0 80.886 80.886"><g transform="translate(0)"><path d="M8652.645,1816.535a2.37,2.37,0,0,0,0-4.74H8614.57a2.37,2.37,0,0,0,0,4.74h11.85v14.376h-2.371a2.364,2.364,0,0,0-1.674.694l-9.479,9.479a2.364,2.364,0,0,0-.7,1.675v9.479a2.365,2.365,0,0,0,.7,1.675l6.414,6.416v-6.7l-2.369-2.37v-7.516l8.09-8.091h17.152l8.092,8.091v7.516l-2.371,2.37v6.7l6.414-6.416a2.365,2.365,0,0,0,.7-1.675v-9.479a2.364,2.364,0,0,0-.7-1.675l-9.479-9.479a2.364,2.364,0,0,0-1.674-.694h-2.371v-14.376Zm0,0" transform="translate(-8574.128 -1811.795)" fill="#064cb2"/><path d="M8502.7,2105.795h-61.612a9.48,9.48,0,1,0,0,18.958H8502.7a9.48,9.48,0,1,0,0-18.958Zm-59.242,11.849a2.37,2.37,0,1,1,2.369-2.37,2.37,2.37,0,0,1-2.369,2.37Zm9.479,0a2.37,2.37,0,1,1,2.37-2.37,2.37,2.37,0,0,1-2.37,2.37Zm9.479,0a2.37,2.37,0,1,1,2.37-2.37,2.37,2.37,0,0,1-2.37,2.37Zm9.479,0a2.37,2.37,0,1,1,2.369-2.37,2.37,2.37,0,0,1-2.369,2.37Zm9.479,0a2.37,2.37,0,1,1,2.37-2.37,2.37,2.37,0,0,1-2.37,2.37Zm9.479,0a2.37,2.37,0,1,1,2.37-2.37,2.37,2.37,0,0,1-2.37,2.37Zm9.479,0a2.37,2.37,0,1,1,2.369-2.37,2.37,2.37,0,0,1-2.369,2.37Zm0,0" transform="translate(-8431.451 -2043.867)" fill="#064cb2"/><path d="M8505.039,1992.545h-14.218a2.369,2.369,0,0,0-2.37,2.37v16.746h18.958v-16.746a2.368,2.368,0,0,0-2.37-2.37Zm0,0" transform="translate(-8476.444 -1954.472)" fill="#064cb2"/><path d="M8685.2,1992.545h-14.376a2.369,2.369,0,0,0-2.37,2.37v16.746h19.115v-16.746a2.367,2.367,0,0,0-2.369-2.37Zm0,0" transform="translate(-8618.529 -1954.472)" fill="#064cb2"/></g></svg>