<svg xmlns="http://www.w3.org/2000/svg" width="175" height="175" viewBox="0 0 175 175"><g transform="translate(454.101 194.143)"><circle cx="84.901" cy="84.901" r="84.901" transform="translate(-451.501 -191.545)" fill="#fff"/><circle cx="84.901" cy="84.901" r="84.901" transform="translate(-451.501 -191.545)" fill="#fff"/><path d="M-366.6-19.143a87.6,87.6,0,0,1-87.5-87.5,87.6,87.6,0,0,1,87.5-87.5,87.6,87.6,0,0,1,87.5,87.5A87.6,87.6,0,0,1-366.6-19.143Zm0-169.8a82.4,82.4,0,0,0-82.3,82.3,82.4,82.4,0,0,0,82.3,82.3,82.4,82.4,0,0,0,82.3-82.3A82.4,82.4,0,0,0-366.6-188.945Z" fill="#0098ff"/><circle cx="75.126" cy="75.126" r="75.126" transform="translate(-441.727 -181.77)" fill="#0098ff"/><path d="M-388.271-82.745a3.694,3.694,0,0,0,.337-5.211l-.2-.233a3.652,3.652,0,0,0-2.532-1.237h-.246a3.664,3.664,0,0,0-2.433.917l-4.95,4.344-4.507,3.957A3.7,3.7,0,0,0-403.139-75l.206.237a3.7,3.7,0,0,0,5.213.337l3.464-3.042Zm0,0" fill="#fff"/><path d="M-375-73.511a3.682,3.682,0,0,0-2.434.916l-4.881,4.284a3.7,3.7,0,0,0-.34,5.215,3.694,3.694,0,0,0,5.213.34l4.882-4.286a3.69,3.69,0,0,0,.342-5.21A3.694,3.694,0,0,0-375-73.511Zm0,0" fill="#fff"/><path d="M-418.546-141.245l-9.923,43.295,7.933,4.457,20.529-33.394Zm0,0" fill="#fff"/><path d="M-399.752-87.772a3.694,3.694,0,0,0,.34-5.214l-.064-.073a3.664,3.664,0,0,0-2.534-1.249h-.245a3.675,3.675,0,0,0-2.434.918l-5.926,5.191a3.7,3.7,0,0,0-.34,5.214,3.711,3.711,0,0,0,5.23.453l.049-.041.449-.4,4.51-3.96Zm0,0" fill="#fff"/><path d="M-379.1-77.429a3.67,3.67,0,0,0-.911-2.679l-.053-.06A3.661,3.661,0,0,0-382.6-81.4h-.245a3.667,3.667,0,0,0-2.433.917l-.58.509-5.989,5.258-1.591,1.389a3.751,3.751,0,0,0-.264,5.3,3.752,3.752,0,0,0,2.513,1.224,3.654,3.654,0,0,0,2.678-.91l8.154-7.157a3.673,3.673,0,0,0,1.25-2.552Zm0,0" fill="#fff"/><path d="M-330.247-89.236l-28.767-23.441c-11.016,5.849-18.816,2.839-22.547.458a4.2,4.2,0,0,1-1.223-5.818,4.192,4.192,0,0,1,1.577-1.429l9.588-5.093c-.247-.037-.489-.069-.707-.091a185.474,185.474,0,0,1-26.149,2.253l-16.761,27.26,3.736,2.848,4.393-3.857a7.348,7.348,0,0,1,10.37.675h0l.063.073a7.288,7.288,0,0,1,1.69,3.556,7.214,7.214,0,0,1,4.54-1.237,7.3,7.3,0,0,1,5.045,2.486l.207.237a7.3,7.3,0,0,1,1.807,5.32v.01a7.8,7.8,0,0,1,1.014-.033,7.3,7.3,0,0,1,5.045,2.486l.052.06h0a7.3,7.3,0,0,1,1.813,5.324c0,.024-.011.048-.013.072a7.306,7.306,0,0,1,7.806,6.77,7.373,7.373,0,0,1,0,1.008,7.29,7.29,0,0,1-1.216,3.536L-361-61.256a3.649,3.649,0,0,0,4.938-1.307,3.581,3.581,0,0,0-1.072-4.79l-12.551-8.7c-.01,0-.015-.019-.024-.027l-.846-.585a1.827,1.827,0,0,1-.418-2.55,1.827,1.827,0,0,1,2.5-.454l17.7,12.261a3.6,3.6,0,0,0,5.005-.907l0,0a3.612,3.612,0,0,0-.883-4.98l-17.615-12.494c-.011,0-.014-.019-.025-.027a1.829,1.829,0,0,1-.43-2.551,1.829,1.829,0,0,1,2.551-.43l19.748,14.011a3.828,3.828,0,0,0,5.336-.92,3.827,3.827,0,0,0-.779-5.231L-359.11-96.246a1.828,1.828,0,0,1-.506-2.536,1.827,1.827,0,0,1,2.534-.505c.032.021.063.042.094.065l1.453,1.037h.019L-335.823-84c.037.026.064.06.1.086l.325.234a1.655,1.655,0,0,1,.176.139l.353.242a3.808,3.808,0,0,0,5.193-.717,3.748,3.748,0,0,0,.655-3.387,3.653,3.653,0,0,0-1.226-1.837Zm0,0" fill="#fff"/><path d="M-314.656-141.9l-18.535,14.357,17.145,27.888h0l.819,1.332,2.569,4.177,7.926-4.46Zm0,0" fill="#fff"/><path d="M-337.952-122.594a16.3,16.3,0,0,1-11.3.411l-9.73-3.159a5.3,5.3,0,0,0-4.055.353l-3.3,1.752c-.035.017-.066.039-.1.055l-13.07,6.944a.551.551,0,0,0-.313.48.5.5,0,0,0,.234.465c3.845,2.454,10.43,4.242,19.856-1.167a1.832,1.832,0,0,1,2.065.168l29.711,24.218a7.043,7.043,0,0,1,1.113,1.15l7.347-7.352-15.657-25.464Zm0,0" fill="#fff"/></g></svg>